<?xml version="1.0" encoding="iso-8859-1"?>
<!-- Generator: Adobe Illustrator 19.0.0, SVG Export Plug-In . SVG Version: 6.00 Build 0)  -->
<svg version="1.1" id="Capa_1" xmlns="http://www.w3.org/2000/svg" xmlns:xlink="http://www.w3.org/1999/xlink" x="0px" y="0px"
	 viewBox="0 0 512 512" style="enable-background:new 0 0 512 512;" xml:space="preserve">
<path style="fill:#FCCA75;" d="M256,8.533C119.33,8.533,8.533,119.33,8.533,256S119.33,503.467,256,503.467
	S503.467,392.67,503.467,256S392.67,8.533,256,8.533z M406.775,406.775l0.077,0.077L406.775,406.775
	c-83.072,83.268-217.924,83.43-301.193,0.358c-0.119-0.119-0.239-0.239-0.358-0.358l-0.077,0.077l0.077-0.077
	c-83.268-83.072-83.43-217.924-0.358-301.193c0.119-0.119,0.239-0.239,0.358-0.358l-0.077-0.077l0.077,0.077
	c83.072-83.268,217.924-83.43,301.193-0.358c0.119,0.119,0.239,0.239,0.358,0.358l0.077-0.077l-0.077,0.077
	c83.268,83.072,83.43,217.924,0.358,301.193C407.014,406.537,406.895,406.656,406.775,406.775z"/>
<path style="fill:#FFF9E1;" d="M406.775,105.225c-83.268-83.072-218.121-82.91-301.193,0.358s-82.91,218.121,0.358,301.193
	s218.121,82.91,301.193-0.358c39.834-39.927,62.199-94.02,62.199-150.417C469.367,199.424,446.857,145.161,406.775,105.225z
	 M230.4,256c0-14.14,11.46-25.6,25.6-25.6c14.14,0,25.6,11.46,25.6,25.6c0,14.14-11.46,25.6-25.6,25.6
	C241.86,281.6,230.4,270.14,230.4,256z"/>
<circle style="fill:#FCCA75;" cx="256" cy="256" r="25.6"/>
<g>
	<path style="fill:#231F20;" d="M256,0C114.611,0,0,114.611,0,256s114.611,256,256,256s256-114.611,256-256
		C511.838,114.679,397.321,0.162,256,0z M256,494.933C124.041,494.933,17.067,387.96,17.067,256S124.041,17.067,256,17.067
		S494.933,124.041,494.933,256C494.78,387.9,387.9,494.78,256,494.933z"/>
	<path style="fill:#231F20;" d="M256,34.133C133.47,34.133,34.133,133.47,34.133,256S133.47,477.867,256,477.867
		S477.867,378.53,477.867,256C477.73,133.521,378.479,34.27,256,34.133z M460.587,264.533
		c-1.988,48.375-21.103,94.464-53.948,130.039l-17.92-17.92l-12.066,12.066l17.92,17.92
		c-35.575,32.845-81.664,51.959-130.039,53.948V435.2h-17.067v25.387c-48.375-1.988-94.464-21.103-130.039-53.948l17.92-17.92
		l-12.066-12.066l-17.92,17.92c-32.845-35.575-51.959-81.664-53.948-130.039H76.8v-17.067H51.413
		c1.988-48.375,21.103-94.464,53.948-130.039l17.92,17.92l12.066-12.066l-17.92-17.92c35.575-32.845,81.664-51.959,130.039-53.948
		V76.8h17.067V51.413c48.375,1.988,94.464,21.103,130.039,53.948l-17.92,17.92l12.066,12.066l17.92-17.92
		c32.845,35.575,51.959,81.664,53.948,130.039H435.2v17.067H460.587z"/>
	<path style="fill:#231F20;" d="M264.533,223.078V110.933h-17.067v112.145c-18.227,4.668-29.21,23.228-24.542,41.455
		s23.228,29.21,41.455,24.542c12.049-3.089,21.453-12.493,24.542-24.542h78.012v-17.067h-78.012
		C285.815,235.52,276.48,226.185,264.533,223.078z M256,273.067c-9.429,0-17.067-7.637-17.067-17.067
		c0-9.429,7.637-17.067,17.067-17.067c9.429,0,17.067,7.637,17.067,17.067C273.067,265.429,265.429,273.067,256,273.067z"/>
	<rect x="213.333" y="341.333" style="fill:#231F20;" width="17.067" height="17.067"/>
	<rect x="247.467" y="341.333" style="fill:#231F20;" width="51.2" height="17.067"/>
</g>
<g>
</g>
<g>
</g>
<g>
</g>
<g>
</g>
<g>
</g>
<g>
</g>
<g>
</g>
<g>
</g>
<g>
</g>
<g>
</g>
<g>
</g>
<g>
</g>
<g>
</g>
<g>
</g>
<g>
</g>
</svg>
