<svg id="Filled" height="512" viewBox="0 0 512 512" width="512" xmlns="http://www.w3.org/2000/svg"><circle cx="256" cy="256" fill="#ffeeb2" r="232"/><circle cx="256" cy="256" fill="#edb90c" r="184"/><path d="m74.782 232a8 8 0 0 1 -7.889-9.383 192.259 192.259 0 0 1 155.725-155.724 8 8 0 1 1 2.764 15.76 176.212 176.212 0 0 0 -142.729 142.729 8 8 0 0 1 -7.871 6.618z"/><path d="m287.991 445.229a8 8 0 0 1 -1.373-15.882 176.212 176.212 0 0 0 142.729-142.729 8 8 0 1 1 15.76 2.764 192.259 192.259 0 0 1 -155.725 155.725 8.048 8.048 0 0 1 -1.391.122z"/><circle cx="72" cy="256" r="8"/><circle cx="256" cy="72" r="8"/><circle cx="440" cy="256" r="8"/><circle cx="256" cy="440" r="8"/><path d="m256 496a240 240 0 0 1 -169.706-409.706 240 240 0 0 1 339.412 339.412 238.432 238.432 0 0 1 -169.706 70.294zm0-464a224 224 0 0 0 -158.392 382.392 224 224 0 0 0 316.784-316.784 222.533 222.533 0 0 0 -158.392-65.608z"/><path d="m328 344a8 8 0 0 0 -8-8h-96.022a39.788 39.788 0 0 0 8.022-24v-40h40a8 8 0 0 0 0-16h-40v-32c0-26.467 17.944-48 40-48s40 21.533 40 48a8 8 0 0 0 16 0c0-35.29-25.122-64-56-64s-56 28.71-56 64v32h-24a8 8 0 0 0 0 16h24v40a24.027 24.027 0 0 1 -24 24 8 8 0 0 0 0 16h128a8 8 0 0 0 8-8z"/></svg>