<?xml version="1.0" encoding="iso-8859-1"?>
<!-- Generator: Adobe Illustrator 19.0.0, SVG Export Plug-In . SVG Version: 6.00 Build 0)  -->
<svg version="1.1" id="Layer_1" xmlns="http://www.w3.org/2000/svg" xmlns:xlink="http://www.w3.org/1999/xlink" x="0px" y="0px"
	 viewBox="0 0 512 512" style="enable-background:new 0 0 512 512;" xml:space="preserve">
<g>
	<g>
		<path d="M320,153.6H192c-7.074,0-12.8,5.726-12.8,12.8c0,7.074,5.726,12.8,12.8,12.8h128c7.074,0,12.8-5.726,12.8-12.8
			C332.8,159.326,327.074,153.6,320,153.6z"/>
	</g>
</g>
<g>
	<g>
		<path d="M358.4,102.4H320V25.6h12.8c7.074,0,12.8-5.726,12.8-12.8c0-7.074-5.726-12.8-12.8-12.8H179.2
			c-7.074,0-12.8,5.726-12.8,12.8c0,7.074,5.726,12.8,12.8,12.8H192v76.8h-38.4c-28.279,0-51.2,22.921-51.2,51.2v281.6
			c0,28.279,22.921,51.2,51.2,51.2v12.8c0,7.074,5.726,12.8,12.8,12.8c7.074,0,12.8-5.726,12.8-12.8v-12.8h153.6v12.8
			c0,7.074,5.726,12.8,12.8,12.8c7.074,0,12.8-5.726,12.8-12.8v-12.8c28.279,0,51.2-22.921,51.2-51.2V153.6
			C409.6,125.321,386.68,102.4,358.4,102.4z M217.6,25.6h76.8v76.8h-76.8V25.6z M307.2,460.8H204.8V384
			c0-14.114,11.486-25.6,25.6-25.6h51.2c14.114,0,25.6,11.486,25.6,25.6V460.8z M384,435.2c0,14.114-11.486,25.6-25.6,25.6h-25.6
			V384c0-28.279-22.921-51.2-51.2-51.2h-51.2c-28.279,0-51.2,22.921-51.2,51.2v76.8h-25.6c-14.114,0-25.6-11.486-25.6-25.6V153.6
			c0-14.114,11.486-25.6,25.6-25.6h204.8c14.114,0,25.6,11.486,25.6,25.6V435.2z"/>
	</g>
</g>
<g>
</g>
<g>
</g>
<g>
</g>
<g>
</g>
<g>
</g>
<g>
</g>
<g>
</g>
<g>
</g>
<g>
</g>
<g>
</g>
<g>
</g>
<g>
</g>
<g>
</g>
<g>
</g>
<g>
</g>
</svg>
