<svg id="Layer_3" enable-background="new 0 0 64 64" height="512" viewBox="0 0 64 64" width="512" xmlns="http://www.w3.org/2000/svg"><g><path d="m10 2h44v60h-44z" fill="#758190"/><path d="m14 6h36v52h-36z" fill="#e8eff4"/><path d="m14 51.919c16.741-1.227 30-17.731 30-37.919 0-2.745-.251-5.42-.717-8h-29.283z" fill="#fff"/><path d="m38 46v4l6-6-6-6v4h-12v-4l-6 6 6 6v-4s13 0 12 0z" fill="#e0747c"/><g fill="#758190"><path d="m25 29.764-.105-.211c-.34-.678-1.449-.678-1.789 0l-.106.211v-4.764h-2v9c0 .464.319.866.771.974.446.103.917-.111 1.124-.526l1.105-2.212 1.105 2.211c.172.345.523.553.895.553.076 0 .153-.009.229-.026.452-.108.771-.51.771-.974v-9h-2z"/><path d="m33 17.764-.105-.211c-.34-.678-1.449-.678-1.789 0l-.106.211v-4.764h-2v9c0 .464.319.867.771.973.446.104.917-.111 1.124-.526l1.105-2.211 1.105 2.211c.172.345.523.553.895.553.076 0 .153-.009.229-.027.452-.106.771-.509.771-.973v-9h-2z"/><path d="m32 25c-1.654 0-3 1.346-3 3v7h2v-3h2v3h2v-7c0-1.654-1.346-3-3-3zm-1 5v-2c0-.551.448-1 1-1s1 .449 1 1v2z"/><path d="m41 28c0 .551-.448 1-1 1s-1-.449-1-1v-3h-2v3c0 1.302.839 2.402 2 2.816v4.184h2v-4.184c1.161-.414 2-1.514 2-2.816v-3h-2z"/><path d="m21 15h2v8h2v-8h2v-2h-6z"/><path d="m40 13c-1.654 0-3 1.346-3 3v4c0 1.654 1.346 3 3 3s3-1.346 3-3v-4c0-1.654-1.346-3-3-3zm1 7c0 .551-.448 1-1 1s-1-.449-1-1v-4c0-.551.448-1 1-1s1 .449 1 1z"/></g></g></svg>