<svg width="1440" height="706" viewBox="0 0 1440 706" xmlns="http://www.w3.org/2000/svg" xmlns:xlink="http://www.w3.org/1999/xlink"><defs><linearGradient x1="6.069%" y1="42.125%" x2="100%" y2="62.019%" id="linearGradient-1"><stop stop-color="#7045AF" offset="0%"/><stop stop-color="#3E26B1" offset="100%"/></linearGradient><path id="path-2" d="M0 0h1440v706H0z"/><linearGradient x1="-18.237%" y1="60.962%" x2="68.854%" y2="41.837%" id="linearGradient-4"><stop stop-color="#7678FF" offset="0%"/><stop stop-color="#FFF" stop-opacity="0" offset="100%"/></linearGradient><linearGradient x1="-18.237%" y1="60.967%" x2="68.854%" y2="41.833%" id="linearGradient-5"><stop stop-color="#7678FF" offset="0%"/><stop stop-color="#FFF" stop-opacity="0" offset="100%"/></linearGradient><linearGradient x1="63.012%" y1="40.763%" x2="4.252%" y2="51.219%" id="linearGradient-6"><stop stop-color="#7678FF" offset="0%"/><stop stop-color="#FFF" stop-opacity="0" offset="100%"/></linearGradient><linearGradient x1="63.012%" y1="40.751%" x2="4.252%" y2="51.221%" id="linearGradient-7"><stop stop-color="#7678FF" offset="0%"/><stop stop-color="#FFF" stop-opacity="0" offset="100%"/></linearGradient></defs><g id="Page-5" stroke="none" stroke-width="1" fill="none" fill-rule="evenodd"><g id="Path-20" transform="matrix(-1 0 0 1 1440 0)"><g id="Rectangle-5"><g id="Group-43"><mask id="mask-3" fill="#fff"><use xlink:href="#path-2"/></mask><use id="Mask" fill="url(#linearGradient-1)" fill-rule="nonzero" xlink:href="#path-2"/><path id="Path-23" fill="url(#linearGradient-4)" fill-rule="nonzero" opacity=".147" mask="url(#mask-3)" transform="matrix(-1 0 0 1 1806.062 0)" d="M366.062 0v502.845L1440 0z"/><path id="Path-23" fill="url(#linearGradient-5)" fill-rule="nonzero" opacity=".147" mask="url(#mask-3)" transform="matrix(-1 0 0 1 2359 0)" d="M919 0v244L1440 0z"/><path id="Path-23" fill="url(#linearGradient-6)" fill-rule="nonzero" opacity=".147" mask="url(#mask-3)" transform="matrix(1 0 0 -1 0 1045)" d="M267 339v367l784-367z"/><path id="Path-23" fill="url(#linearGradient-7)" fill-rule="nonzero" opacity=".147" mask="url(#mask-3)" transform="matrix(1 0 0 -1 0 1087)" d="M1 384v319l681-319z"/></g></g></g></g></svg>